<?xml version="1.0" encoding="UTF-8" standalone="no"?>
<!DOCTYPE svg PUBLIC "-//W3C//DTD SVG 1.1//EN" "http://www.w3.org/Graphics/SVG/1.1/DTD/svg11.dtd">
<svg xmlns="http://www.w3.org/2000/svg" version="1.1" viewBox="0 0 512 512">
<path fill="#00b6f4" d="
  M 512.00 97.06
  Q 512.00 102.81 512.00 108.56
  Q 509.07 131.83 488.33 137.71
  Q 483.77 139.00 476.02 139.00
  Q 260.13 139.00 44.25 139.00
  Q 28.50 139.00 24.33 138.02
  Q 12.09 135.16 4.81 123.94
  Q 0.67 117.55 0.00 108.44
  Q 0.00 102.31 0.00 96.19
  Q 0.98 84.96 7.56 77.31
  Q 17.21 66.11 33.00 66.10
  Q 252.76 66.00 472.52 66.00
  Q 484.24 66.00 489.32 67.49
  Q 503.12 71.55 509.44 85.56
  Q 511.57 90.30 512.00 97.06
  Z"
/>
<path fill="#006e9f" d="
  M 0.00 256.19
  Q 0.00 249.69 0.00 243.19
  Q 1.21 229.32 11.06 220.81
  Q 20.20 212.92 33.25 212.93
  Q 218.38 213.00 403.50 213.00
  Q 412.25 213.00 419.38 216.67
  Q 430.52 222.42 434.76 233.43
  Q 436.61 238.22 437.00 245.79
  Q 437.37 252.85 436.69 258.44
  Q 435.80 265.74 430.74 272.54
  Q 423.31 282.51 412.18 285.11
  Q 408.38 286.00 392.26 286.00
  Q 212.50 285.99 32.75 285.80
  Q 15.43 285.78 5.81 272.44
  Q 0.95 265.69 0.00 256.19
  Z"
/>
<path fill="#00294e" d="
  M 0.00 402.19
  Q 0.00 395.44 0.00 388.69
  Q 0.96 379.65 5.31 373.31
  Q 12.74 362.50 24.80 359.84
  Q 28.61 359.00 44.74 359.00
  Q 186.75 359.00 328.75 359.00
  Q 333.25 359.00 337.74 360.27
  Q 342.08 361.49 345.95 363.93
  Q 358.31 371.72 360.75 387.00
  Q 361.21 389.86 361.12 399.50
  Q 361.02 410.01 354.87 418.42
  Q 347.81 428.09 337.16 430.88
  Q 332.88 432.00 317.25 432.00
  Q 175.12 432.00 33.00 432.01
  Q 28.05 432.01 23.37 430.74
  Q 18.73 429.49 14.62 426.79
  Q 1.85 418.41 0.00 402.19
  Z"
/>
</svg>
